<svg width="116" height="21" viewBox="0 0 116 21" fill="none" xmlns="http://www.w3.org/2000/svg">
<path d="M11.2252 12.169C10.7769 12.525 10.2652 12.7929 9.71729 12.9587C9.7719 13.3059 9.8006 13.6622 9.8006 14.0255C11.0098 13.7127 12.0798 13.0048 12.8407 12.0143C13.6015 11.0237 14.0095 9.80731 13.9998 8.55832C13.9902 7.30933 13.5634 6.09939 12.7874 5.1207C12.0113 4.14202 10.9305 3.45074 9.7166 3.15667C8.2871 2.81134 6.77914 3.04193 5.51816 3.79867C4.25719 4.55541 3.34432 5.77762 2.97658 7.20151C3.3392 7.20151 3.69553 7.22952 4.04275 7.28482C4.20849 6.73688 4.47642 6.22525 4.8324 5.77693L11.2252 12.169ZM11.9672 11.427L9.14396 8.6016L9.67669 8.06887C10.1752 8.41643 10.7687 8.60218 11.3764 8.6009C11.9249 8.60203 12.4629 8.4508 12.9305 8.16407C13.0457 9.33512 12.7007 10.505 11.9686 11.4263L11.9672 11.427ZM9.95811 4.32434C10.4201 4.49235 10.8472 4.73386 11.2259 5.03418L9.69489 6.56517C9.53431 6.27838 9.45018 5.95511 9.45058 5.62642C9.45058 5.12449 9.64309 4.66736 9.95811 4.32434ZM8.93255 7.32612L8.40051 7.85885L5.57584 5.03418C6.49708 4.3021 7.66699 3.95715 8.83804 4.07232C8.55107 4.53983 8.39959 5.07786 8.40051 5.62642C8.40051 6.25856 8.59653 6.84449 8.93255 7.32612ZM12.6771 7.0447C12.3222 7.37134 11.8573 7.5523 11.375 7.55153C11.0341 7.55153 10.7142 7.46263 10.4369 7.30722L11.9672 5.77693C12.2703 6.15849 12.5099 6.58701 12.6771 7.0447ZM1.5751 8.95162C1.43585 8.95162 1.30231 9.00694 1.20384 9.1054C1.10538 9.20386 1.05006 9.33741 1.05006 9.47665V10.8767C1.05006 12.2228 1.58478 13.5137 2.53659 14.4655C3.48839 15.4173 4.77932 15.952 6.12538 15.952H7.52546C7.66471 15.952 7.79825 15.8967 7.89671 15.7983C7.99518 15.6998 8.05049 15.5663 8.05049 15.427V14.0269C8.05049 12.6809 7.51577 11.39 6.56397 10.4381C5.61216 9.48634 4.32124 8.95162 2.97518 8.95162H1.5751ZM0 9.47665C0 9.05891 0.165947 8.65828 0.461335 8.36289C0.756723 8.0675 1.15735 7.90156 1.5751 7.90156H2.97518C4.59973 7.90156 6.15775 8.54691 7.30648 9.69564C8.45521 10.8444 9.10056 12.4024 9.10056 14.0269V15.427C9.10056 15.8448 8.93461 16.2454 8.63922 16.5408C8.34384 16.8362 7.9432 17.0021 7.52546 17.0021H6.12538C4.50082 17.0021 2.94281 16.3568 1.79408 15.208C0.64535 14.0593 0 12.5013 0 10.8767V9.47665ZM4.04625 11.2058C3.94672 11.113 3.81508 11.0625 3.67906 11.0649C3.54304 11.0673 3.41326 11.1224 3.31707 11.2186C3.22087 11.3148 3.16577 11.4446 3.16337 11.5806C3.16097 11.7166 3.21146 11.8483 3.3042 11.9478L5.05431 13.6979C5.10238 13.7495 5.16034 13.7909 5.22474 13.8196C5.28915 13.8483 5.35867 13.8637 5.42917 13.8649C5.49966 13.8662 5.56969 13.8532 5.63506 13.8268C5.70044 13.8004 5.75983 13.7611 5.80968 13.7112C5.85954 13.6614 5.89884 13.602 5.92525 13.5366C5.95166 13.4712 5.96462 13.4012 5.96338 13.3307C5.96214 13.2602 5.94671 13.1907 5.91801 13.1263C5.88931 13.0619 5.84794 13.0039 5.79636 12.9559L4.04625 11.2058Z" fill="black"/>
<path d="M24.8438 15.7188L23.7031 12.125H20.6562L19.5312 15.7188H17.6406L20.6719 6.29688C20.8385 5.77604 20.901 5.48438 20.8594 5.42188C20.8281 5.34896 20.7604 5.30208 20.6562 5.28125C20.4271 5.21875 20.2604 5.15104 20.1562 5.07812C20.0521 4.99479 20 4.85938 20 4.67188C20 4.35938 20.2083 4.20312 20.625 4.20312H23.1094L26.9219 15.7188H24.8438ZM23.2656 10.7812L22.1562 7.29688L21.0781 10.7812H23.2656ZM30.875 5.48438H30.0938C29.6667 5.48438 29.4531 5.6875 29.4531 6.09375V15.7188H27.5781V6.125C27.5781 5.79167 27.5417 5.57292 27.4688 5.46875C27.4062 5.36458 27.3542 5.30729 27.3125 5.29688C27.0729 5.22396 26.901 5.14583 26.7969 5.0625C26.7031 4.97917 26.6562 4.85417 26.6562 4.6875C26.6562 4.36458 26.8125 4.20312 27.125 4.20312H30.8906C32.1302 4.20312 33.0938 4.5 33.7812 5.09375C34.4688 5.6875 34.8125 6.46875 34.8125 7.4375C34.8125 8.47917 34.4896 9.29688 33.8438 9.89062C33.1979 10.4844 32.5104 10.7917 31.7812 10.8125L34.9375 15.7188H32.6406L29.6719 10.6562C29.5156 10.3958 29.4844 10.151 29.5781 9.92188C29.6823 9.68229 29.8542 9.5625 30.0938 9.5625H30.4219C31.151 9.5625 31.7292 9.38542 32.1562 9.03125C32.5833 8.67708 32.7969 8.14062 32.7969 7.42188C32.8073 6.80729 32.6094 6.33333 32.2031 6C31.7969 5.65625 31.3542 5.48438 30.875 5.48438ZM37.75 9.10938H39.2812C39.7708 9.10938 40.1094 9.04688 40.2969 8.92188C40.4844 8.79688 40.5781 8.5625 40.5781 8.21875C40.5781 8.02083 40.7865 7.92188 41.2031 7.92188C41.6198 7.92188 41.8281 8.02083 41.8281 8.21875V11.3438C41.8281 11.5208 41.6198 11.6094 41.2031 11.6094C40.7865 11.6094 40.5781 11.5208 40.5781 11.3438C40.5781 10.9896 40.4792 10.7396 40.2812 10.5938C40.0833 10.4479 39.7448 10.375 39.2656 10.375H37.75V13.875C37.75 14.2396 37.9479 14.4219 38.3438 14.4219H40.2344C40.6406 14.4219 40.9062 14.3281 41.0312 14.1406C41.1667 13.9427 41.2604 13.724 41.3125 13.4844C41.375 13.1406 41.6198 12.9948 42.0469 13.0469C42.474 13.0885 42.6875 13.2552 42.6875 13.5469L42.5781 15.7188H35.7812V6.125C35.7812 5.79167 35.7552 5.57812 35.7031 5.48438C35.651 5.38021 35.5781 5.3125 35.4844 5.28125C35.3073 5.21875 35.1667 5.15104 35.0625 5.07812C34.9583 4.99479 34.9062 4.86458 34.9062 4.6875C34.9062 4.36458 35.0885 4.20312 35.4531 4.20312H42.3281L42.4219 6.25C42.4219 6.58333 42.2031 6.75521 41.7656 6.76562C41.3281 6.77604 41.099 6.60938 41.0781 6.26562C41.0469 6.09896 40.9635 5.93229 40.8281 5.76562C40.7031 5.58854 40.4219 5.5 39.9844 5.5H38.3125C37.9375 5.5 37.75 5.6875 37.75 6.0625V9.10938ZM46.2656 4.20312L49.9062 12.0312V4.20312H51.75V14.9844C51.75 15.474 51.4219 15.7188 50.7656 15.7188H49.6562L45.8438 7.48438V15.7188H44.0938V6.10938C44.0938 5.78646 44.0729 5.57812 44.0312 5.48438C44 5.38021 43.9427 5.3125 43.8594 5.28125C43.6719 5.21875 43.5156 5.15625 43.3906 5.09375C43.2656 5.03125 43.2031 4.91146 43.2031 4.73438C43.2031 4.38021 43.4219 4.20312 43.8594 4.20312H46.2656ZM59.3906 15.7188L58.25 12.125H55.2031L54.0781 15.7188H52.1875L55.2188 6.29688C55.3854 5.77604 55.4479 5.48438 55.4062 5.42188C55.375 5.34896 55.3073 5.30208 55.2031 5.28125C54.974 5.21875 54.8073 5.15104 54.7031 5.07812C54.599 4.99479 54.5469 4.85938 54.5469 4.67188C54.5469 4.35938 54.7552 4.20312 55.1719 4.20312H57.6562L61.4688 15.7188H59.3906ZM57.8125 10.7812L56.7031 7.29688L55.625 10.7812H57.8125ZM70.8281 12.4844C70.7969 12.0469 70.6146 11.6615 70.2812 11.3281C69.9479 10.9844 69.4115 10.6146 68.6719 10.2188C67.8177 9.80208 67.1667 9.32812 66.7188 8.79688C66.2708 8.25521 66.0521 7.58333 66.0625 6.78125C66.0833 5.98958 66.3958 5.32812 67 4.79688C67.6042 4.26562 68.4167 4 69.4375 4C69.9896 4 70.4896 4.04167 70.9375 4.125C71.3854 4.20833 71.8281 4.32812 72.2656 4.48438V6.125C71.6719 5.8125 71.1458 5.60417 70.6875 5.5C70.2292 5.39583 69.8333 5.34375 69.5 5.34375C69.1667 5.34375 68.849 5.47396 68.5469 5.73438C68.2448 5.98438 68.0938 6.35417 68.0938 6.84375C68.0938 7.28125 68.276 7.67188 68.6406 8.01562C69.0156 8.34896 69.6094 8.73438 70.4219 9.17188C71.2448 9.60938 71.8594 10.099 72.2656 10.6406C72.6823 11.1719 72.8906 11.7969 72.8906 12.5156C72.8906 13.401 72.5729 14.1615 71.9375 14.7969C71.3125 15.4323 70.3854 15.7812 69.1562 15.8438C68.6979 15.8646 68.2135 15.8229 67.7031 15.7188C67.1927 15.6042 66.776 15.4427 66.4531 15.2344C66.2448 15.1094 66.1094 14.9583 66.0469 14.7812C65.9844 14.6042 65.9844 14.4115 66.0469 14.2031C66.1406 13.9948 66.3125 13.8594 66.5625 13.7969C66.8125 13.724 67.099 13.7865 67.4219 13.9844C67.6406 14.0885 67.9167 14.1875 68.25 14.2812C68.5833 14.3646 68.8698 14.401 69.1094 14.3906C69.6927 14.3385 70.1406 14.1406 70.4531 13.7969C70.7656 13.4531 70.8906 13.0156 70.8281 12.4844ZM73.8438 5.28125C73.6146 5.21875 73.4479 5.14583 73.3438 5.0625C73.25 4.97917 73.2031 4.85417 73.2031 4.6875C73.2031 4.36458 73.3594 4.20312 73.6719 4.20312H77.4375C78.6771 4.20312 79.6406 4.50521 80.3281 5.10938C81.0156 5.71354 81.3594 6.5 81.3594 7.46875C81.3594 8.57292 80.9844 9.41667 80.2344 10C79.4948 10.5833 78.4427 10.875 77.0781 10.875H76.5312C76.2708 10.875 76.1406 10.6562 76.1406 10.2188C76.1406 9.78125 76.2552 9.5625 76.4844 9.5625H76.8906C77.6719 9.5625 78.276 9.39062 78.7031 9.04688C79.1302 8.70312 79.3438 8.17188 79.3438 7.45312C79.3542 6.83854 79.1562 6.35938 78.75 6.01562C78.3438 5.66146 77.8906 5.48438 77.3906 5.48438H76.6406C76.2135 5.48438 76 5.6875 76 6.09375V15.7188H74.125V6.125C74.125 5.79167 74.0938 5.57292 74.0312 5.46875C73.9688 5.36458 73.9062 5.30208 73.8438 5.28125ZM81.4219 9.90625C81.4219 8.1875 81.849 6.77604 82.7031 5.67188C83.5677 4.55729 84.7917 4 86.375 4C87.9583 4 89.1823 4.55729 90.0469 5.67188C90.9115 6.77604 91.3438 8.1875 91.3438 9.90625C91.3438 11.625 90.9115 13.0417 90.0469 14.1562C89.1823 15.2604 87.9583 15.8125 86.375 15.8125C84.7917 15.8125 83.5677 15.2604 82.7031 14.1562C81.849 13.0417 81.4219 11.625 81.4219 9.90625ZM83.4531 9.90625C83.4531 11.3646 83.7396 12.4844 84.3125 13.2656C84.8854 14.0365 85.5729 14.4219 86.375 14.4219C87.1771 14.4219 87.8646 14.0365 88.4375 13.2656C89.0208 12.4844 89.3125 11.3646 89.3125 9.90625C89.3125 8.44792 89.0208 7.32812 88.4375 6.54688C87.8646 5.76562 87.1771 5.375 86.375 5.375C85.5729 5.375 84.8854 5.76562 84.3125 6.54688C83.7396 7.32812 83.4531 8.44792 83.4531 9.90625ZM95.8281 5.48438H95.0469C94.6198 5.48438 94.4062 5.6875 94.4062 6.09375V15.7188H92.5312V6.125C92.5312 5.79167 92.4948 5.57292 92.4219 5.46875C92.3594 5.36458 92.3073 5.30729 92.2656 5.29688C92.026 5.22396 91.8542 5.14583 91.75 5.0625C91.6562 4.97917 91.6094 4.85417 91.6094 4.6875C91.6094 4.36458 91.7656 4.20312 92.0781 4.20312H95.8438C97.0833 4.20312 98.0469 4.5 98.7344 5.09375C99.4219 5.6875 99.7656 6.46875 99.7656 7.4375C99.7656 8.47917 99.4427 9.29688 98.7969 9.89062C98.151 10.4844 97.4635 10.7917 96.7344 10.8125L99.8906 15.7188H97.5938L94.625 10.6562C94.4688 10.3958 94.4375 10.151 94.5312 9.92188C94.6354 9.68229 94.8073 9.5625 95.0469 9.5625H95.375C96.1042 9.5625 96.6823 9.38542 97.1094 9.03125C97.5365 8.67708 97.75 8.14062 97.75 7.42188C97.7604 6.80729 97.5625 6.33333 97.1562 6C96.75 5.65625 96.3073 5.48438 95.8281 5.48438ZM101.922 5.5C101.464 5.5 101.161 5.63542 101.016 5.90625C100.88 6.17708 100.807 6.45833 100.797 6.75C100.786 7.02083 100.557 7.15104 100.109 7.14062C99.6719 7.13021 99.4531 6.96354 99.4531 6.64062L99.5312 4.20312H108.031L108.125 6.64062C108.125 6.96354 107.901 7.13021 107.453 7.14062C107.005 7.15104 106.771 6.98958 106.75 6.65625C106.74 6.41667 106.661 6.16667 106.516 5.90625C106.37 5.63542 106.057 5.5 105.578 5.5H104.766V15.7188H102.797V5.5H101.922ZM112.797 12.4844C112.766 12.0469 112.583 11.6615 112.25 11.3281C111.917 10.9844 111.38 10.6146 110.641 10.2188C109.786 9.80208 109.135 9.32812 108.688 8.79688C108.24 8.25521 108.021 7.58333 108.031 6.78125C108.052 5.98958 108.365 5.32812 108.969 4.79688C109.573 4.26562 110.385 4 111.406 4C111.958 4 112.458 4.04167 112.906 4.125C113.354 4.20833 113.797 4.32812 114.234 4.48438V6.125C113.641 5.8125 113.115 5.60417 112.656 5.5C112.198 5.39583 111.802 5.34375 111.469 5.34375C111.135 5.34375 110.818 5.47396 110.516 5.73438C110.214 5.98438 110.062 6.35417 110.062 6.84375C110.062 7.28125 110.245 7.67188 110.609 8.01562C110.984 8.34896 111.578 8.73438 112.391 9.17188C113.214 9.60938 113.828 10.099 114.234 10.6406C114.651 11.1719 114.859 11.7969 114.859 12.5156C114.859 13.401 114.542 14.1615 113.906 14.7969C113.281 15.4323 112.354 15.7812 111.125 15.8438C110.667 15.8646 110.182 15.8229 109.672 15.7188C109.161 15.6042 108.745 15.4427 108.422 15.2344C108.214 15.1094 108.078 14.9583 108.016 14.7812C107.953 14.6042 107.953 14.4115 108.016 14.2031C108.109 13.9948 108.281 13.8594 108.531 13.7969C108.781 13.724 109.068 13.7865 109.391 13.9844C109.609 14.0885 109.885 14.1875 110.219 14.2812C110.552 14.3646 110.839 14.401 111.078 14.3906C111.661 14.3385 112.109 14.1406 112.422 13.7969C112.734 13.4531 112.859 13.0156 112.797 12.4844Z" fill="black"/>
</svg>
